<?xml version="1.0" standalone="no"?>
<!DOCTYPE svg PUBLIC "-//W3C//DTD SVG 20010904//EN"
 "http://www.w3.org/TR/2001/REC-SVG-20010904/DTD/svg10.dtd">
<svg version="1.0" xmlns="http://www.w3.org/2000/svg"
 width="360.000000pt" height="360.000000pt" viewBox="0 0 360.000000 360.000000"
 preserveAspectRatio="xMidYMid meet">
<metadata>
Created by potrace 1.11, written by Peter Selinger 2001-2013
</metadata>
<g transform="translate(0.000000,360.000000) scale(0.100000,-0.100000)"
fill="#000000" stroke="none">
<path d="M3230 3589 c-394 -35 -673 -124 -940 -299 -94 -62 -228 -163 -305
-229 -86 -75 -395 -392 -485 -499 -60 -70 -102 -112 -115 -113 -11 -1 -33 -2
-50 -4 -16 -1 -100 -6 -185 -10 -85 -4 -171 -8 -190 -10 -19 -2 -102 -6 -185
-10 -198 -8 -226 -12 -251 -38 -12 -12 -127 -204 -256 -427 -268 -461 -258
-443 -258 -466 0 -21 156 -183 189 -195 19 -8 90 11 337 86 l313 96 310 -310
310 -310 -14 -43 c-64 -194 -175 -569 -175 -590 0 -19 24 -48 94 -116 89 -86
96 -91 124 -83 16 5 128 66 248 136 332 194 380 222 499 290 134 78 155 96
156 138 0 18 2 50 4 72 1 22 6 103 10 180 4 77 8 165 10 195 2 30 6 121 10
203 4 81 8 153 9 161 1 7 24 33 51 56 28 23 79 68 114 99 701 611 963 1114
986 1890 3 109 2 115 -21 138 -23 23 -29 24 -147 21 -67 -1 -156 -5 -197 -9z
m-240 -501 c88 -46 137 -152 111 -246 -15 -52 -71 -118 -120 -138 -46 -19
-126 -20 -171 0 -37 15 -90 66 -109 104 -17 32 -21 115 -8 157 36 119 184 180
297 123z"/>
</g>
</svg>
